<svg width="24px" height="24px" viewBox="0 -2.4 24 24" xmlns="http://www.w3.org/2000/svg"><path d="M23.775 17.662 1.35 0.132A0.6 0.6 0 0 0 0.507 0.225l-0.375 0.468A0.6 0.6 0 0 0 0.225 1.537l22.425 17.531a0.6 0.6 0 0 0 0.843 -0.093l0.375 -0.468A0.6 0.6 0 0 0 23.775 17.662zM11.13 5.493l5.055 3.952C16.101 7.197 14.268 5.4 12 5.4a4.21 4.21 0 0 0 -0.87 0.093zm1.741 8.215L7.816 9.756C7.899 12.003 9.732 13.8 12 13.8a4.237 4.237 0 0 0 0.87 -0.092zM12 4.2c3.699 0 7.091 2.063 8.922 5.4a10.707 10.707 0 0 1 -1.65 2.257l1.415 1.106a12.514 12.514 0 0 0 1.984 -2.817 1.213 1.213 0 0 0 0 -1.095C20.636 5.085 16.61 2.4 12 2.4c-1.376 0 -2.689 0.263 -3.924 0.705l1.74 1.361c0.71 -0.161 1.438 -0.266 2.183 -0.266zm0 10.8c-3.699 0 -7.091 -2.063 -8.922 -5.4a10.705 10.705 0 0 1 1.652 -2.257l-1.415 -1.106a12.51 12.51 0 0 0 -1.983 2.816 1.213 1.213 0 0 0 0 1.095C3.365 14.115 7.391 16.8 12 16.8c1.376 0 2.689 -0.264 3.924 -0.705l-1.74 -1.361C13.473 14.895 12.746 15 12 15z"/></svg>