<svg width="24px" height="24px" viewBox="0 -1.333 24 24" xmlns="http://www.w3.org/2000/svg">
    <path d="M12 6a4.622 4.622 0 0 0 -1.302 0.208 2.308 2.308 0 0 1 0.302 1.125 2.333 2.333 0 0 1 -2.333 2.333 2.308 2.308 0 0 1 -1.125 -0.302A4.655 4.655 0 1 0 12 6zm11.855 4.058C21.595 5.65 17.122 2.667 12 2.667S2.403 5.652 0.145 10.059a1.348 1.348 0 0 0 0 1.216C2.405 15.684 6.878 18.667 12 18.667s9.597 -2.985 11.855 -7.392a1.348 1.348 0 0 0 0 -1.216zM12 16.667c-4.11 0 -7.879 -2.292 -9.914 -6C4.121 6.958 7.889 4.667 12 4.667s7.879 2.292 9.914 6C19.879 14.375 16.111 16.667 12 16.667z"/>
</svg>