<svg xmlns="http://www.w3.org/2000/svg"
 width="30.000000pt" height="30.000000pt" viewBox="0 0 30.000000 30.000000">
<g transform="translate(0.000000,30.000000) scale(0.013393,-0.013216)"
   fill="gray" stroke="none">
<path d="M1083 2258 l-23 -11 -2 -407 -3 -408 -77 45 -78 45 -66 -37 c-36 -20
-64 -38 -62 -39 18 -15 345 -199 353 -199 8 0 259 143 334 190 l23 15 -58 34
c-33 18 -64 34 -71 34 -6 0 -42 -18 -81 -40 -38 -22 -72 -40 -76 -40 -3 0 -6
181 -6 401 0 371 -1 403 -17 415 -21 16 -60 17 -90 2z"/>
<path d="M833 2112 l-63 -36 -2 -175 -3 -175 -209 -121 c-121 -69 -218 -132
-230 -148 -20 -27 -21 -44 -26 -285 l-5 -257 -147 -85 -148 -85 0 -72 c0 -40
3 -73 6 -73 3 0 99 54 215 121 l209 121 0 229 c0 144 4 229 10 229 5 0 147
-80 315 -177 l305 -178 0 -362 0 -362 -192 111 c-105 61 -199 112 -207 114
-16 4 -426 -228 -426 -240 0 -4 27 -22 61 -41 l60 -34 140 81 c76 44 144 82
151 85 7 3 108 -51 225 -119 188 -109 218 -123 258 -123 39 1 73 17 254 123
115 67 210 122 212 122 2 0 69 -38 150 -85 l147 -86 44 23 c101 54 110 40
-126 176 -116 67 -213 122 -215 122 -3 0 -92 -50 -198 -111 -106 -61 -196
-114 -200 -116 -5 -2 -8 157 -8 354 l0 358 313 183 312 182 5 -231 5 -231 170
-100 c94 -54 187 -108 208 -119 l37 -19 0 74 0 75 -145 83 -145 83 0 255 c0
185 -4 262 -13 280 -8 17 -84 66 -232 152 l-220 127 -5 176 -5 177 -62 35 -63
35 0 -249 0 -248 200 -115 c110 -63 200 -117 200 -120 0 -5 -591 -355 -612
-363 -8 -3 -628 356 -628 365 0 3 88 57 195 118 l195 112 0 249 c0 137 -1 249
-2 249 -2 -1 -31 -17 -65 -38z"/>
<path d="M1523 958 l-173 -101 0 -203 c0 -112 3 -204 8 -204 4 0 32 15 62 33
l55 33 5 91 5 90 340 -198 c187 -109 345 -199 352 -199 7 0 24 5 38 12 23 10
26 17 23 56 l-3 44 -337 197 c-186 108 -338 201 -339 206 -1 6 32 30 74 54
l77 43 0 74 c0 41 -3 74 -7 73 -5 0 -86 -46 -180 -101z"/>
<path d="M550 978 l0 -73 81 -44 c44 -23 78 -45 76 -47 -2 -2 -40 -23 -83 -47
-44 -23 -202 -115 -352 -202 l-272 -160 0 -36 c0 -32 4 -38 39 -54 l40 -17
341 201 c188 110 343 201 345 201 3 0 6 -41 7 -90 l3 -91 63 -35 62 -35 0 203
0 203 -170 98 c-93 53 -171 97 -174 97 -4 0 -6 -33 -6 -72z"/>
</g>
</svg>
